<?xml version="1.0" encoding="utf-8"?>
<!-- Generator: Adobe Illustrator 15.0.0, SVG Export Plug-In  -->
<!DOCTYPE svg PUBLIC "-//W3C//DTD SVG 1.1//EN" "http://www.w3.org/Graphics/SVG/1.1/DTD/svg11.dtd" [
	<!ENTITY ns_flows "http://ns.adobe.com/Flows/1.0/">
]>
<svg version="1.1"
	 xmlns="http://www.w3.org/2000/svg" xmlns:xlink="http://www.w3.org/1999/xlink" xmlns:a="http://ns.adobe.com/AdobeSVGViewerExtensions/3.0/"
	 x="0px" y="0px" width="507px" height="93px" viewBox="0 -0.333 507 93" enable-background="new 0 -0.333 507 93"
	 xml:space="preserve">
<defs>
</defs>
<polygon id="bg_1_" fill="#FFF200" points="506.667,0 0,0 0,92.602 506.667,92.602 506.667,0 "/>
<polygon fill="#FFFFFF" points="23.246,85.276 21.7,84.779 20.271,84.215 19.083,83.617 18.046,82.863 17.243,82.066 16.648,81.324 
	16.286,80.548 16.354,79.874 28.788,31.48 44.521,35.622 32.001,83.899 31.621,84.487 31.039,85.018 30.162,85.385 29.077,85.696 
	27.801,85.855 26.366,85.782 24.846,85.585 23.246,85.276 "/>
<polygon fill="none" stroke="#034EA2" stroke-width="1.5" stroke-linecap="round" stroke-linejoin="round" points="23.246,85.276 
	21.7,84.779 20.271,84.215 19.083,83.617 18.046,82.863 17.243,82.066 16.648,81.324 16.286,80.548 16.354,79.874 28.788,31.48 
	44.521,35.622 32.001,83.899 31.621,84.487 31.039,85.018 30.162,85.385 29.077,85.696 27.801,85.855 26.366,85.782 24.846,85.585 
	23.246,85.276 "/>
<path fill="none" stroke="#034EA2" stroke-width="1.5" stroke-linecap="round" stroke-linejoin="round" d="M32.277,82.397
	L32.05,82.83l-0.203,0.34l-0.429,0.383l-0.515,0.258l-0.619,0.233l-0.602,0.141L28.88,84.27l-0.803,0.092 M32.277,82.397"/>
<path fill="none" stroke="#034EA2" stroke-width="1.5" stroke-linecap="round" stroke-linejoin="round" d="M23.521,83.78l-1.551-0.5
	l-1.422-0.562l-1.189-0.604l-1.036-0.754l-0.804-0.795l-0.588-0.738l-0.362-0.778l0.055-0.675 M23.521,83.78"/>
<path fill="none" stroke="#034EA2" stroke-width="1.5" stroke-linecap="round" stroke-linejoin="round" d="M32.779,80.865
	l-0.196,0.337l-0.227,0.432l-0.405,0.288l-0.521,0.258l-0.613,0.236l-0.729,0.202l-0.699,0.116l-0.81,0.086 M32.779,80.865"/>
<path fill="none" stroke="#034EA2" stroke-width="1.5" stroke-linecap="round" stroke-linejoin="round" d="M24.03,82.238
	l-1.551-0.497L21.05,81.18l-1.183-0.599l-1.036-0.757l-0.81-0.794l-0.589-0.742l-0.361-0.778l0.061-0.671 M24.03,82.238"/>
<path fill="none" stroke="#034EA2" stroke-width="1.5" stroke-linecap="round" stroke-linejoin="round" d="M33.178,79.294
	l-0.196,0.344l-0.221,0.432l-0.411,0.288l-0.521,0.258l-0.613,0.233l-0.73,0.204l-0.699,0.117l-0.803,0.083 M33.178,79.294"/>
<path fill="none" stroke="#034EA2" stroke-width="1.5" stroke-linecap="round" stroke-linejoin="round" d="M24.429,80.677
	l-1.552-0.497l-1.422-0.563l-1.189-0.602l-1.036-0.754l-0.803-0.791l-0.594-0.745l-0.362-0.784l0.067-0.665 M24.429,80.677"/>
<path fill="none" stroke="#034EA2" stroke-width="1.5" stroke-linecap="round" stroke-linejoin="round" d="M33.583,77.728
	l-0.22,0.436l-0.203,0.34l-0.429,0.384l-0.521,0.257l-0.613,0.233l-0.705,0.113l-0.699,0.119l-0.81,0.083 M33.583,77.728"/>
<path fill="none" stroke="#034EA2" stroke-width="1.5" stroke-linecap="round" stroke-linejoin="round" d="M24.828,79.114
	l-1.545-0.5l-1.429-0.558l-1.183-0.607l-1.037-0.75l-0.803-0.798l-0.595-0.742l-0.362-0.778l0.062-0.675 M24.828,79.114"/>
<path fill="none" stroke="#034EA2" stroke-width="1.5" stroke-linecap="round" stroke-linejoin="round" d="M33.988,76.165
	L33.767,76.6l-0.203,0.34l-0.435,0.384l-0.515,0.26l-0.619,0.228l-0.706,0.116l-0.693,0.113l-0.81,0.086 M33.988,76.165"/>
<path fill="none" stroke="#034EA2" stroke-width="1.5" stroke-linecap="round" stroke-linejoin="round" d="M25.232,77.546
	l-1.545-0.493l-1.428-0.563l-1.19-0.601l-1.037-0.755l-0.803-0.797l-0.595-0.741l-0.362-0.779l0.068-0.672 M25.232,77.546"/>
<path fill="none" stroke="#034EA2" stroke-width="1.5" stroke-linecap="round" stroke-linejoin="round" d="M34.386,74.604
	l-0.221,0.436l-0.203,0.341l-0.43,0.376l-0.521,0.261l-0.613,0.233l-0.706,0.113l-0.699,0.116l-0.809,0.086 M34.386,74.604"/>
<path fill="none" stroke="#034EA2" stroke-width="1.5" stroke-linecap="round" stroke-linejoin="round" d="M25.636,75.983
	l-1.551-0.496l-1.422-0.564l-1.19-0.594l-1.036-0.761l-0.804-0.794l-0.594-0.738l-0.362-0.782l0.062-0.672 M25.636,75.983"/>
<path fill="none" stroke="#034EA2" stroke-width="1.5" stroke-linecap="round" stroke-linejoin="round" d="M34.791,73.043
	l-0.221,0.426l-0.203,0.347l-0.429,0.374l-0.521,0.261l-0.614,0.236L32.099,74.8l-0.7,0.113L30.591,75 M34.791,73.043"/>
<path fill="none" stroke="#034EA2" stroke-width="1.5" stroke-linecap="round" stroke-linejoin="round" d="M26.042,74.42l-1.558-0.5
	l-1.422-0.561l-1.183-0.598l-1.042-0.758l-0.804-0.794l-0.594-0.742l-0.355-0.775l0.061-0.674 M26.042,74.42"/>
<path fill="none" stroke="#034EA2" stroke-width="1.5" stroke-linecap="round" stroke-linejoin="round" d="M35.189,71.474
	l-0.221,0.436l-0.203,0.34l-0.429,0.377l-0.521,0.261l-0.614,0.232l-0.705,0.114l-0.699,0.116l-0.809,0.083 M35.189,71.474"/>
<path fill="none" stroke="#034EA2" stroke-width="1.5" stroke-linecap="round" stroke-linejoin="round" d="M26.44,72.857
	l-1.551-0.496l-1.423-0.564l-1.189-0.602l-1.036-0.754l-0.803-0.797l-0.595-0.739l-0.361-0.778l0.061-0.672 M26.44,72.857"/>
<path fill="none" stroke="#034EA2" stroke-width="1.5" stroke-linecap="round" stroke-linejoin="round" d="M35.594,69.911
	l-0.221,0.435l-0.202,0.338l-0.429,0.384l-0.521,0.257l-0.613,0.233l-0.711,0.113l-0.7,0.113l-0.803,0.089 M35.594,69.911"/>
<path fill="none" stroke="#034EA2" stroke-width="1.5" stroke-linecap="round" stroke-linejoin="round" d="M26.845,71.293
	l-1.558-0.5l-1.422-0.558l-1.183-0.604l-1.037-0.757l-0.834-0.699l-0.588-0.745l-0.362-0.775l0.086-0.767 M26.845,71.293"/>
<path fill="none" stroke="#034EA2" stroke-width="1.5" stroke-linecap="round" stroke-linejoin="round" d="M35.992,68.344
	l-0.221,0.438l-0.202,0.338l-0.429,0.384l-0.515,0.26l-0.619,0.233l-0.705,0.113l-0.699,0.113l-0.804,0.086 M35.992,68.344"/>
<path fill="none" stroke="#034EA2" stroke-width="1.5" stroke-linecap="round" stroke-linejoin="round" d="M27.243,69.727
	l-1.552-0.494l-1.422-0.567l-1.189-0.598l-1.03-0.753l-0.81-0.794l-0.595-0.745l-0.362-0.778l0.067-0.672 M27.243,69.727"/>
<path fill="none" stroke="#034EA2" stroke-width="1.5" stroke-linecap="round" stroke-linejoin="round" d="M36.396,66.784
	l-0.22,0.435l-0.203,0.341l-0.429,0.376l-0.521,0.261l-0.619,0.233l-0.7,0.11l-0.699,0.12l-0.81,0.086 M36.396,66.784"/>
<path fill="none" stroke="#034EA2" stroke-width="1.5" stroke-linecap="round" stroke-linejoin="round" d="M27.642,68.164
	l-1.545-0.497l-1.428-0.561l-1.184-0.598l-1.036-0.761l-0.828-0.702l-0.594-0.742l-0.362-0.778l0.086-0.761 M27.642,68.164"/>
<path fill="none" stroke="#034EA2" stroke-width="1.5" stroke-linecap="round" stroke-linejoin="round" d="M36.795,65.223
	l-0.214,0.426l-0.203,0.34l-0.436,0.387l-0.514,0.257l-0.62,0.236l-0.706,0.11l-0.699,0.117l-0.803,0.08 M36.795,65.223"/>
<path fill="none" stroke="#034EA2" stroke-width="1.5" stroke-linecap="round" stroke-linejoin="round" d="M28.046,66.603
	l-1.545-0.5l-1.428-0.564l-1.19-0.6l-1.036-0.754l-0.827-0.705l-0.595-0.736l-0.356-0.782l0.086-0.764 M28.046,66.603"/>
<path fill="none" stroke="#034EA2" stroke-width="1.5" stroke-linecap="round" stroke-linejoin="round" d="M37.2,63.654
	l-0.221,0.436l-0.203,0.34l-0.429,0.377l-0.521,0.261L35.213,65.3l-0.705,0.113L33.81,65.53L33,65.616 M37.2,63.654"/>
<path fill="none" stroke="#034EA2" stroke-width="1.5" stroke-linecap="round" stroke-linejoin="round" d="M28.451,65.033
	l-1.552-0.493l-1.428-0.564l-1.183-0.601l-1.036-0.757l-0.828-0.702l-0.595-0.742l-0.362-0.776l0.086-0.766 M28.451,65.033"/>
<path fill="none" stroke="#034EA2" stroke-width="1.5" stroke-linecap="round" stroke-linejoin="round" d="M37.605,62.093
	l-0.221,0.436l-0.202,0.34l-0.436,0.377l-0.515,0.258l-0.613,0.233l-0.711,0.114l-0.693,0.113l-0.81,0.089 M37.605,62.093"/>
<path fill="none" stroke="#034EA2" stroke-width="1.5" stroke-linecap="round" stroke-linejoin="round" d="M28.855,63.473
	l-1.557-0.496l-1.423-0.562l-1.183-0.601l-1.042-0.757l-0.828-0.702l-0.588-0.742l-0.362-0.782l0.086-0.76 M28.855,63.473"/>
<path fill="none" stroke="#034EA2" stroke-width="1.5" stroke-linecap="round" stroke-linejoin="round" d="M38.003,60.53
	l-0.221,0.432l-0.202,0.34l-0.429,0.375l-0.521,0.266l-0.613,0.233l-0.705,0.111l-0.699,0.117l-0.81,0.085 M38.003,60.53"/>
<path fill="none" stroke="#034EA2" stroke-width="1.5" stroke-linecap="round" stroke-linejoin="round" d="M29.254,61.903
	l-1.552-0.494l-1.422-0.563l-1.189-0.598l-1.036-0.754l-0.828-0.705l-0.594-0.742l-0.362-0.778l0.086-0.76 M29.254,61.903"/>
<path fill="none" stroke="#034EA2" stroke-width="1.5" stroke-linecap="round" stroke-linejoin="round" d="M38.408,58.963
	l-0.22,0.436l-0.203,0.34l-0.429,0.377l-0.521,0.257l-0.613,0.236L35.71,60.72l-0.699,0.116l-0.804,0.086 M38.408,58.963"/>
<path fill="none" stroke="#034EA2" stroke-width="1.5" stroke-linecap="round" stroke-linejoin="round" d="M29.628,60.435
	l-1.545-0.493l-1.429-0.562l-1.183-0.6l-1.036-0.761l-0.81-0.794l-0.595-0.742l-0.355-0.778l0.086-0.76 M29.628,60.435"/>
<path fill="none" stroke="#034EA2" stroke-width="1.5" stroke-linecap="round" stroke-linejoin="round" d="M38.806,57.396
	l-0.22,0.438l-0.197,0.334l-0.435,0.386l-0.521,0.258l-0.613,0.232l-0.706,0.114l-0.699,0.113l-0.803,0.089 M38.806,57.396"/>
<path fill="none" stroke="#034EA2" stroke-width="1.5" stroke-linecap="round" stroke-linejoin="round" d="M30.033,58.868
	l-1.552-0.49l-1.422-0.567l-1.189-0.598l-1.036-0.754l-0.803-0.797l-0.595-0.739l-0.361-0.781l0.092-0.764 M30.033,58.868"/>
<path fill="none" stroke="#034EA2" stroke-width="1.5" stroke-linecap="round" stroke-linejoin="round" d="M39.211,55.833
	l-0.221,0.435l-0.203,0.34l-0.43,0.38l-0.521,0.257l-0.619,0.233l-0.706,0.113l-0.693,0.117l-0.809,0.086 M39.211,55.833"/>
<path fill="none" stroke="#034EA2" stroke-width="1.5" stroke-linecap="round" stroke-linejoin="round" d="M30.438,57.308
	l-1.551-0.497l-1.429-0.561l-1.183-0.598l-1.037-0.76l-0.803-0.794l-0.595-0.745l-0.362-0.772l0.086-0.77 M30.438,57.308"/>
<path fill="none" stroke="#034EA2" stroke-width="1.5" stroke-linecap="round" stroke-linejoin="round" d="M39.61,54.273
	l-0.221,0.435l-0.203,0.341l-0.429,0.377l-0.515,0.257l-0.62,0.236l-0.705,0.113l-0.7,0.114l-0.809,0.086 M39.61,54.273"/>
<path fill="none" stroke="#034EA2" stroke-width="1.5" stroke-linecap="round" stroke-linejoin="round" d="M30.836,55.745
	l-1.551-0.5l-1.422-0.561l-1.19-0.602l-1.037-0.753l-0.803-0.797l-0.595-0.739l-0.356-0.781l0.08-0.761 M30.836,55.745"/>
<path fill="none" stroke="#034EA2" stroke-width="1.5" stroke-linecap="round" stroke-linejoin="round" d="M40.015,52.709
	l-0.221,0.429l-0.202,0.344l-0.43,0.379l-0.521,0.261l-0.614,0.233l-0.705,0.11l-0.699,0.117l-0.809,0.086 M40.015,52.709"/>
<path fill="none" stroke="#034EA2" stroke-width="1.5" stroke-linecap="round" stroke-linejoin="round" d="M31.24,54.178
	l-1.551-0.497l-1.422-0.561l-1.19-0.598l-1.036-0.758l-0.804-0.796l-0.594-0.739l-0.362-0.779l0.086-0.764 M31.24,54.178"/>
<path fill="none" stroke="#034EA2" stroke-width="1.5" stroke-linecap="round" stroke-linejoin="round" d="M40.419,51.143
	l-0.227,0.436l-0.196,0.34l-0.435,0.377l-0.516,0.258l-0.619,0.232l-0.705,0.114l-0.699,0.12l-0.804,0.083 M40.419,51.143"/>
<path fill="none" stroke="#034EA2" stroke-width="1.5" stroke-linecap="round" stroke-linejoin="round" d="M31.646,52.615
	l-1.558-0.494l-1.422-0.561l-1.19-0.601l-1.036-0.76l-0.804-0.794l-0.588-0.738l-0.361-0.782l0.086-0.763 M31.646,52.615"/>
<path fill="none" stroke="#034EA2" stroke-width="1.5" stroke-linecap="round" stroke-linejoin="round" d="M40.713,49.552
	l-0.227,0.433l-0.19,0.34l-0.441,0.383l-0.509,0.26l-0.619,0.233l-0.601,0.138l-0.803,0.085l-0.81,0.089 M40.713,49.552"/>
<path fill="none" stroke="#034EA2" stroke-width="1.5" stroke-linecap="round" stroke-linejoin="round" d="M31.964,50.931
	l-1.551-0.493l-1.422-0.564l-1.19-0.601l-1.036-0.757l-0.809-0.793l-0.588-0.739l-0.362-0.782l0.061-0.671 M31.964,50.931"/>
<polygon fill="#FFFFFF" points="54.791,26.575 45.453,31.551 29.702,27.501 29.106,25.875 28.371,24.411 27.709,23.062 
	26.998,21.903 26.139,20.894 25.312,20.192 24.307,19.736 23.588,18.712 27.059,16.422 52.688,23.006 54.791,26.575 "/>
<polygon fill="none" stroke="#034EA2" stroke-width="2" stroke-linecap="round" stroke-linejoin="round" points="54.791,26.575 
	45.453,31.551 29.702,27.501 29.106,25.875 28.371,24.411 27.709,23.062 26.998,21.903 26.139,20.894 25.312,20.192 24.307,19.736 
	23.588,18.712 27.059,16.422 52.688,23.006 54.791,26.575 "/>
<polygon fill="#FFFFFF" points="29.702,27.501 29.106,25.875 28.396,24.319 27.728,22.973 27.022,21.808 26.139,20.894 
	25.312,20.192 24.307,19.736 23.337,19.585 21.044,28.512 27.384,36.514 29.702,27.501 "/>
<polygon fill="none" stroke="#034EA2" stroke-width="1.5" stroke-linecap="round" stroke-linejoin="round" points="29.702,27.501 
	29.106,25.875 28.396,24.319 27.728,22.973 27.022,21.808 26.139,20.894 25.312,20.192 24.307,19.736 23.337,19.585 21.044,28.512 
	27.384,36.514 29.702,27.501 "/>
<path fill="none" stroke="#034EA2" stroke-width="1.5" stroke-linecap="round" stroke-linejoin="round" d="M45.453,31.551
	l-2.317,9.013l-15.751-4.049l2.318-9.013 M45.453,31.551"/>
<polygon fill="#FFFFFF" points="45.453,31.551 43.135,40.563 27.384,36.514 29.702,27.501 31.805,27.157 33.834,27.09 
	35.925,27.237 37.948,27.657 39.818,28.236 41.713,29.116 43.675,30.208 45.453,31.551 "/>
<polygon fill="none" stroke="#034EA2" stroke-width="1.5" stroke-linecap="round" stroke-linejoin="round" points="45.453,31.551 
	43.135,40.563 27.384,36.514 29.702,27.501 31.805,27.157 33.834,27.09 35.925,27.237 37.948,27.657 39.818,28.236 41.713,29.116 
	43.675,30.208 45.453,31.551 "/>
<polygon fill="#FFFFFF" points="54.735,27.657 52.418,36.67 43.031,40.536 45.348,31.523 46.673,30.291 48.077,29.181 
	49.285,28.415 50.572,27.764 51.676,27.363 52.718,27.237 53.815,27.323 54.735,27.657 "/>
<polygon fill="none" stroke="#034EA2" stroke-width="2" stroke-linecap="round" stroke-linejoin="round" points="54.735,27.657 
	52.418,36.67 43.031,40.536 45.348,31.523 46.673,30.291 48.077,29.181 49.285,28.415 50.572,27.764 51.676,27.363 52.718,27.237 
	53.815,27.323 54.735,27.657 "/>
<polygon fill="#FFFFFF" points="37.923,27.749 35.213,26.952 32.786,25.94 30.622,24.794 28.708,23.515 27.268,22.167 
	26.262,20.831 25.815,19.536 25.808,18.258 26.428,17.142 27.446,16.228 28.966,15.545 30.885,15.052 33.172,14.859 35.625,14.901 
	38.243,15.174 40.995,15.79 43.706,16.579 46.127,17.596 48.297,18.742 50.204,20.018 51.652,21.373 52.645,22.709 53.104,24 
	53.111,25.275 52.485,26.391 51.467,27.305 49.947,27.995 48.034,28.482 45.741,28.678 43.289,28.642 40.676,28.356 37.923,27.749 
	"/>
<polygon fill="none" stroke="#034EA2" stroke-width="1.5" stroke-linecap="round" stroke-linejoin="round" points="37.923,27.749 
	35.213,26.952 32.786,25.94 30.622,24.794 28.708,23.515 27.268,22.167 26.262,20.831 25.815,19.536 25.808,18.258 26.428,17.142 
	27.446,16.228 28.966,15.545 30.885,15.052 33.172,14.859 35.625,14.901 38.243,15.174 40.995,15.79 43.706,16.579 46.127,17.596 
	48.297,18.742 50.204,20.018 51.652,21.373 52.645,22.709 53.104,24 53.111,25.275 52.485,26.391 51.467,27.305 49.947,27.995 
	48.034,28.482 45.741,28.678 43.289,28.642 40.676,28.356 37.923,27.749 "/>
<path fill="#034EA2" d="M75.52,67.755L75.52,67.755l21.282-28.758h15.609l-0.337,1.137c-5.408,0-6.487,2.278-7.97,7.143
	l-7.842,25.411c-0.27,0.883-1.012,3.097-1.012,4.043c0,2.849,2.63,2.975,4.929,2.975l-0.337,1.134H77.544l0.337-1.134
	c5.678,0,6.965-2.214,8.449-7.018l8.105-26.106l-0.128-0.126L68.899,80.839h-1.355l-3.985-35.016h-0.135L55.25,72.562
	c-0.337,1.199-0.815,2.401-0.815,3.599c0,2.781,2.636,3.545,5.07,3.545l-0.337,1.134H44.368l0.337-1.134
	c4.869,0,6.695-3.226,7.909-7.144l9.46-30.149c-1.692-2.024-3.378-2.278-6.149-2.278l0.337-1.137h15.947"/>
<path fill="#034EA2" d="M122.276,72.562c-0.208,0.821-1.079,3.412-1.079,4.169c0,2.975,3.042,2.975,5.402,2.975l-0.338,1.134
	h-21.826l0.337-1.134c5.205,0,6.149-1.582,7.842-7.144l7.769-25.285c0.203-0.822,1.085-3.413,1.085-4.176
	c0-2.967-3.041-2.967-5.407-2.967l0.337-1.137h20.742c9.865,0,12.839,5.31,12.839,10.114c0,6.949-7.365,13.02-18.314,13.02
	c-2.09,0-4.121-0.252-6.008-0.503L122.276,72.562L122.276,72.562z M126.33,59.221c1.76,0.257,3.177,0.257,3.918,0.257
	c5.408,0,9.461-6.195,9.461-12.011c0-3.792-2.501-6.07-6.487-6.07h-1.417L126.33,59.221L126.33,59.221z"/>
<path fill="#034EA2" d="M201.4,72.37c-0.342,1.075-1.085,3.285-1.085,4.361c0,2.91,2.839,2.91,5.206,2.975l-0.404,1.134h-21.553
	l0.399-1.134c5.543,0.251,6.419-2.975,7.769-7.144l7.842-25.41c0.337-1.266,0.876-2.91,0.876-4.176c0-2.716-2.704-2.652-4.794-2.842
	l0.337-1.137h17.431c10.27,0,15.476,2.148,15.476,9.862c0,4.295-4.323,9.228-12.165,10.871l3.79,11.946
	c2.023,6.386,3.041,8.029,7.425,8.029l-0.332,1.134h-13.923l-6.352-20.353h-2.226L201.4,72.37L201.4,72.37z M205.588,58.592h2.704
	c6.346,0,10.337-5.693,10.337-10.749c0-3.853-1.895-6.446-6.149-6.446h-1.484L205.588,58.592L205.588,58.592z"/>
<path fill="#034EA2" d="M246.467,72.562c-0.206,0.821-1.079,3.412-1.079,4.169c0,2.975,3.042,2.975,5.4,2.975l-0.335,1.134h-21.824
	l0.337-1.134c5.206,0,6.149-1.582,7.836-7.144l7.773-25.285c0.198-0.822,1.082-3.413,1.082-4.176c0-2.967-3.042-2.967-5.41-2.967
	l0.344-1.137h20.738c9.863,0,12.839,5.31,12.839,10.114c0,6.949-7.364,13.02-18.313,13.02c-2.095,0-4.12-0.252-6.013-0.503
	L246.467,72.562L246.467,72.562z M250.521,59.221c1.757,0.257,3.175,0.257,3.918,0.257c5.4,0,9.456-6.195,9.456-12.011
	c0-3.792-2.498-6.07-6.483-6.07h-1.419L250.521,59.221L250.521,59.221z"/>
<path fill="#034EA2" d="M292.683,57.516c7.299,0,11.757-0.315,14.929-6.701h1.221l-5.003,16.309h-1.217
	c0.205-0.886,0.34-1.708,0.34-2.529c0-4.675-3.854-4.675-11.083-4.675l-4.052,13.21c-0.272,0.883-0.813,2.462-0.813,3.415
	c0,1.895,3.58,1.895,4.932,1.895c6.35,0,14.661-3.412,19.326-9.102h1.352l-4.662,11.502h-38.044l0.34-1.134
	c5.202,0,6.15-1.582,7.839-7.144l7.771-25.285c0.202-0.822,1.078-3.413,1.078-4.176c0-2.967-3.04-2.967-5.403-2.967l0.336-1.137
	h36.15l-2.906,10.49h-1.217c0-8.09-6.285-8.09-12.634-8.09h-3.647L292.683,57.516L292.683,57.516z"/>
<path fill="#034EA2" d="M336.873,72.37c-0.341,1.075-1.085,3.285-1.085,4.361c0,2.91,2.842,2.91,5.205,2.975l-0.408,1.134h-21.551
	l0.402-1.134c5.543,0.251,6.422-2.975,7.771-7.144l7.839-25.41c0.339-1.266,0.876-2.91,0.876-4.176c0-2.716-2.704-2.652-4.794-2.842
	l0.333-1.137h17.435c10.271,0,15.476,2.148,15.476,9.862c0,4.295-4.323,9.228-12.162,10.871l3.783,11.946
	c2.027,6.386,3.042,8.029,7.431,8.029l-0.333,1.134H349.17l-6.354-20.353h-2.23L336.873,72.37L336.873,72.37z M341.058,58.592h2.704
	c6.353,0,10.341-5.693,10.341-10.749c0-3.853-1.893-6.446-6.149-6.446h-1.484L341.058,58.592L341.058,58.592z"/>
<path fill="#034EA2" d="M404.371,66.873l6.079-19.405c0.341-1.266,0.746-2.465,0.746-3.792c0-2.719-2.161-3.351-4.659-3.541
	l0.336-1.137h14.188l-0.338,1.137c-5.133,0.254-6.347,3.032-7.632,7.208l-10.745,33.942h-1.22l-17.903-35.65l-8.447,27.054
	c-0.336,1.073-0.674,2.214-0.674,3.286c0,2.906,2.229,3.731,4.93,3.731l-0.338,1.134h-14.591l0.334-1.134
	c5.138,0,6.624-3.351,7.771-6.956l9.193-29.709c-1.896-2.084-3.381-2.906-6.489-2.906l0.337-1.137h15.135L404.371,66.873
	L404.371,66.873z"/>
<path fill="#034EA2" d="M487.413,52.271h-1.217c-0.067-5.056-3.648-11.441-9.73-11.441c-3.647,0-6.554,2.909-6.554,6.26
	c0,8.216,14.394,12.005,14.394,22.499c0,8.347-7.84,12.2-15.746,12.2c-2.701,0-4.997-0.38-7.636-0.886
	c-1.487-0.252-3.581-0.695-5.064-0.695c-1.893,0-2.907,0.57-4.395,1.581h-1.284l3.985-15.932h1.217
	c0.477,6.573,3.783,13.339,11.893,13.339c3.988,0,7.434-2.968,7.434-6.766c0-8.532-14.188-12.701-14.188-23.005
	c0-7.143,7.162-11.379,14.188-11.379c2.704,0,4.798,0.508,7.363,1.141c1.285,0.315,2.64,0.756,3.988,0.756
	c1.758,0,2.435-0.696,3.581-1.897h1.419L487.413,52.271L487.413,52.271z"/>
<polygon points="186.741,60.64 177.538,79.886 180.721,76.04 189.929,56.787 186.741,60.64 "/>
<polygon fill="none" stroke="#363639" stroke-width="0.1032" points="186.741,60.64 177.538,79.886 180.721,76.04 189.929,56.787 
	186.741,60.64 "/>
<polygon fill="#F49AC1" points="158.764,41.238 177.532,41.238 180.769,37.185 162.007,37.191 158.764,41.238 "/>
<polygon fill="#ED1C24" points="177.532,41.238 186.741,60.64 189.929,56.787 180.713,37.388 177.532,41.238 "/>
<polygon fill="none" stroke="#363639" stroke-width="0.0632" points="177.532,41.238 186.741,60.64 189.929,56.787 180.713,37.388 
	177.532,41.238 "/>
<polygon fill="#ED1C24" points="149.813,60.57 158.99,41.238 177.532,41.238 186.71,60.56 178.329,60.564 178.268,59.334 
	178.139,58.095 177.882,56.943 177.532,55.828 177.115,54.745 176.612,53.751 176.036,52.826 175.361,51.937 174.662,51.167 
	173.865,50.478 173.037,49.859 172.179,49.362 171.254,48.939 170.302,48.629 169.279,48.473 168.262,48.399 167.237,48.476 
	166.22,48.632 165.263,48.939 164.344,49.362 163.485,49.859 162.651,50.478 161.86,51.167 161.162,51.943 160.488,52.829 
	159.911,53.758 159.401,54.751 158.99,55.828 158.635,56.949 158.384,58.102 158.255,59.334 158.193,60.57 149.813,60.57 "/>
<polygon fill="#ED1C24" points="149.813,60.57 149.782,60.646 158.998,79.893 177.538,79.886 186.741,60.64 186.71,60.56 
	178.329,60.564 178.268,61.796 178.139,63.026 177.882,64.184 177.538,65.293 177.121,66.376 176.612,67.375 176.036,68.301 
	175.367,69.19 174.668,69.954 173.871,70.653 173.05,71.265 172.186,71.768 171.26,72.192 170.31,72.495 169.279,72.658 
	168.268,72.728 167.243,72.658 166.226,72.498 165.269,72.192 164.344,71.772 163.491,71.265 162.657,70.656 161.86,69.957 
	161.162,69.196 160.488,68.307 159.917,67.381 159.401,66.379 158.99,65.296 158.641,64.187 158.384,63.029 158.261,61.799 
	158.193,60.57 149.813,60.57 "/>
<polyline fill="none" stroke="#FFFFFF" stroke-width="0.1032" points="168.262,48.399 169.279,48.473 170.302,48.629 
	171.254,48.939 172.179,49.362 173.037,49.859 173.865,50.478 174.662,51.167 175.361,51.937 176.036,52.826 176.612,53.751 
	177.115,54.745 177.532,55.828 177.882,56.943 178.139,58.095 178.268,59.334 178.329,60.564 178.268,61.796 178.139,63.026 
	177.882,64.184 177.538,65.293 177.121,66.376 176.612,67.375 176.036,68.301 175.367,69.19 174.668,69.954 173.871,70.653 
	173.05,71.265 172.186,71.768 171.26,72.192 170.31,72.495 169.279,72.658 168.268,72.728 167.243,72.658 166.226,72.498 
	165.269,72.192 164.344,71.772 163.491,71.265 162.657,70.656 161.86,69.957 161.162,69.196 160.488,68.307 159.917,67.381 
	159.401,66.379 158.99,65.296 158.641,64.187 158.384,63.029 158.261,61.799 158.193,60.57 158.255,59.334 158.384,58.102 
	158.635,56.949 158.99,55.828 159.401,54.751 159.911,53.758 160.488,52.829 161.162,51.943 161.86,51.167 162.651,50.478 
	163.485,49.859 164.344,49.362 165.263,48.939 166.22,48.632 167.237,48.476 168.262,48.399 "/>
<polyline fill="none" stroke="#000000" stroke-width="0.0632" points="186.741,60.64 177.538,79.886 158.998,79.893 149.782,60.646 
	158.99,41.238 177.532,41.238 186.741,60.64 "/>
<path d="M162.981,50.456c0,0-8.589,6.604-2.268,17.814c0,0,2.581,4.638,8.62,4.161c0,0,5.01-0.332,7.695-6.377
	c0,0-3.501,4.893-10.037,1.339C166.992,67.394,158.305,62.792,162.981,50.456L162.981,50.456z"/>
<polygon points="450.282,60.64 441.079,79.886 444.265,76.04 453.468,56.787 450.282,60.64 "/>
<polygon fill="none" stroke="#363639" stroke-width="0.1032" points="450.282,60.64 441.079,79.886 444.265,76.04 453.468,56.787 
	450.282,60.64 "/>
<polygon fill="#F49AC1" points="422.309,41.238 441.07,41.238 444.311,37.185 425.547,37.191 422.309,41.238 "/>
<polygon fill="#ED1C24" points="441.07,41.238 450.282,60.64 453.468,56.787 444.253,37.388 441.07,41.238 "/>
<polygon fill="none" stroke="#363639" stroke-width="0.0632" points="441.07,41.238 450.282,60.64 453.468,56.787 444.253,37.388 
	441.07,41.238 "/>
<polygon fill="#ED1C24" points="413.354,60.57 422.533,41.238 441.07,41.238 450.251,60.56 441.871,60.564 441.809,59.334 
	441.68,58.095 441.423,56.943 441.073,55.828 440.659,54.745 440.15,53.751 439.575,52.826 438.905,51.937 438.207,51.167 
	437.406,50.478 436.583,49.859 435.719,49.362 434.792,48.939 433.843,48.629 432.82,48.473 431.804,48.399 430.778,48.476 
	429.762,48.632 428.805,48.939 427.883,49.362 427.023,49.859 426.192,50.478 425.398,51.167 424.7,51.943 424.026,52.829 
	423.452,53.758 422.942,54.751 422.536,55.828 422.18,56.949 421.923,58.102 421.796,59.334 421.736,60.57 413.354,60.57 "/>
<polygon fill="#ED1C24" points="413.354,60.57 413.323,60.646 422.542,79.893 441.079,79.886 450.282,60.64 450.251,60.56 
	441.871,60.564 441.809,61.796 441.68,63.026 441.423,64.184 441.076,65.293 440.662,66.376 440.15,67.375 439.578,68.301 
	438.913,69.19 438.21,69.954 437.412,70.653 436.589,71.265 435.725,71.768 434.801,72.192 433.849,72.495 432.823,72.658 
	431.807,72.728 430.781,72.658 429.765,72.498 428.809,72.192 427.886,71.772 427.029,71.265 426.198,70.656 425.401,69.957 
	424.703,69.196 424.026,68.307 423.455,67.381 422.942,66.379 422.536,65.296 422.184,64.187 421.926,63.029 421.801,61.799 
	421.736,60.57 413.354,60.57 "/>
<polyline fill="none" stroke="#FFFFFF" stroke-width="0.1032" points="431.804,48.399 432.82,48.473 433.843,48.629 434.792,48.939 
	435.719,49.362 436.583,49.859 437.406,50.478 438.207,51.167 438.905,51.937 439.575,52.826 440.15,53.751 440.659,54.745 
	441.073,55.828 441.423,56.943 441.68,58.095 441.809,59.334 441.871,60.564 441.809,61.796 441.68,63.026 441.423,64.184 
	441.076,65.293 440.662,66.376 440.15,67.375 439.578,68.301 438.913,69.19 438.21,69.954 437.412,70.653 436.589,71.265 
	435.725,71.768 434.801,72.192 433.849,72.495 432.823,72.658 431.807,72.728 430.781,72.658 429.765,72.498 428.809,72.192 
	427.886,71.772 427.029,71.265 426.198,70.656 425.401,69.957 424.703,69.196 424.026,68.307 423.455,67.381 422.942,66.379 
	422.536,65.296 422.184,64.187 421.926,63.029 421.801,61.799 421.736,60.57 421.796,59.334 421.923,58.102 422.18,56.949 
	422.536,55.828 422.942,54.751 423.452,53.758 424.026,52.829 424.7,51.943 425.398,51.167 426.192,50.478 427.023,49.859 
	427.883,49.362 428.805,48.939 429.762,48.632 430.778,48.476 431.804,48.399 "/>
<polyline fill="none" stroke="#000000" stroke-width="0.0632" points="450.282,60.64 441.079,79.886 422.542,79.893 413.323,60.646 
	422.533,41.238 441.07,41.238 450.282,60.64 "/>
<path d="M426.527,50.456c0,0-8.597,6.604-2.275,17.814c0,0,2.582,4.638,8.621,4.161c0,0,5.012-0.332,7.697-6.377
	c0,0-3.504,4.893-10.04,1.339C430.53,67.394,421.849,62.792,426.527,50.456L426.527,50.456z"/>
<g>
	<path d="M75.633,31.155v0.325h-7.478v-0.325h0.475c0.415,0,0.749-0.062,1.002-0.185c0.183-0.082,0.323-0.223,0.422-0.422
		c0.077-0.141,0.116-0.51,0.116-1.107v-7.84c0-0.609-0.039-0.99-0.116-1.143c-0.078-0.152-0.234-0.286-0.47-0.4
		c-0.235-0.114-0.554-0.171-0.954-0.171h-0.475v-0.325h7.478v0.325h-0.475c-0.415,0-0.749,0.062-1.002,0.185
		c-0.183,0.082-0.327,0.223-0.433,0.422c-0.077,0.141-0.116,0.51-0.116,1.107v7.84c0,0.609,0.04,0.99,0.121,1.143
		s0.239,0.286,0.475,0.4s0.554,0.171,0.955,0.171H75.633z"/>
	<path d="M90.958,27.42l3.881-7.857h5.822v0.325h-0.464c-0.422,0-0.759,0.062-1.012,0.185c-0.176,0.082-0.316,0.22-0.422,0.413
		c-0.078,0.141-0.116,0.507-0.116,1.099v7.857c0,0.609,0.039,0.99,0.116,1.143c0.077,0.152,0.235,0.286,0.475,0.4
		c0.239,0.114,0.559,0.171,0.959,0.171h0.464v0.325h-7.467v-0.325h0.464c0.422,0,0.759-0.062,1.013-0.185
		c0.176-0.082,0.316-0.223,0.422-0.422c0.077-0.141,0.116-0.51,0.116-1.107v-8.833L89.724,31.48h-0.253l-5.569-10.793v8.394
		c0,0.586,0.018,0.946,0.053,1.081c0.091,0.293,0.29,0.532,0.596,0.716c0.306,0.185,0.786,0.277,1.439,0.277v0.325h-4.894v-0.325
		h0.147c0.316,0.006,0.612-0.037,0.886-0.127c0.274-0.091,0.482-0.212,0.623-0.365s0.25-0.366,0.327-0.642
		c0.014-0.064,0.021-0.363,0.021-0.896v-7.541c0-0.604-0.039-0.98-0.116-1.129c-0.078-0.149-0.236-0.281-0.475-0.396
		c-0.239-0.114-0.559-0.171-0.96-0.171h-0.453v-0.325h5.843L90.958,27.42z"/>
	<path d="M111.42,26.084v3.305c0,0.645,0.047,1.05,0.142,1.217c0.095,0.167,0.264,0.3,0.506,0.4s0.688,0.149,1.334,0.149v0.325
		h-7.267v-0.325c0.661,0,1.109-0.051,1.345-0.154s0.401-0.236,0.496-0.4c0.095-0.164,0.143-0.568,0.143-1.213v-7.734
		c0-0.645-0.047-1.05-0.143-1.217c-0.095-0.167-0.262-0.3-0.501-0.4c-0.239-0.1-0.686-0.149-1.339-0.149v-0.325h6.233
		c2.053,0,3.526,0.305,4.419,0.914s1.339,1.371,1.339,2.285c0,0.773-0.288,1.436-0.865,1.986s-1.371,0.926-2.383,1.125
		C114.197,26.014,113.044,26.084,111.42,26.084z M111.42,20.248v5.15c0.232,0.012,0.408,0.018,0.527,0.018
		c0.857,0,1.519-0.212,1.983-0.637c0.464-0.425,0.696-1.083,0.696-1.973c0-0.885-0.232-1.532-0.696-1.942
		c-0.464-0.41-1.157-0.615-2.078-0.615H111.42z"/>
	<path d="M131.661,19.396c2.278-0.07,4.129,0.483,5.553,1.661s2.136,2.651,2.136,4.421c0,1.512-0.531,2.842-1.593,3.99
		c-1.406,1.523-3.393,2.285-5.959,2.285c-2.573,0-4.563-0.727-5.969-2.18c-1.111-1.148-1.667-2.511-1.667-4.087
		c0-1.77,0.723-3.245,2.167-4.425S129.551,19.325,131.661,19.396z M131.787,19.958c-1.308,0-2.303,0.557-2.985,1.67
		c-0.556,0.914-0.833,2.227-0.833,3.938c0,2.033,0.429,3.536,1.287,4.509c0.598,0.68,1.434,1.02,2.51,1.02
		c0.724,0,1.329-0.146,1.814-0.439c0.619-0.375,1.1-0.974,1.445-1.797c0.344-0.823,0.517-1.897,0.517-3.221
		c0-1.576-0.176-2.755-0.527-3.538s-0.8-1.334-1.345-1.657S132.497,19.958,131.787,19.958z"/>
	<path d="M150.392,26.049v3.34c0,0.645,0.048,1.05,0.143,1.217s0.262,0.3,0.501,0.4c0.239,0.1,0.686,0.149,1.339,0.149v0.325h-7.319
		v-0.325c0.661,0,1.109-0.051,1.345-0.154c0.235-0.103,0.401-0.236,0.496-0.4s0.143-0.568,0.143-1.213v-7.734
		c0-0.645-0.048-1.05-0.143-1.217s-0.262-0.3-0.501-0.4c-0.239-0.1-0.686-0.149-1.339-0.149v-0.325h6.645
		c1.729,0,2.995,0.1,3.797,0.299c0.801,0.199,1.456,0.567,1.961,1.103c0.506,0.536,0.76,1.165,0.76,1.885
		c0,0.879-0.38,1.605-1.139,2.18c-0.485,0.363-1.164,0.636-2.036,0.817l3.438,4.034c0.45,0.521,0.77,0.847,0.959,0.976
		c0.288,0.182,0.623,0.281,1.002,0.299v0.325h-4.503l-4.609-5.432H150.392z M150.392,20.204v5.221h0.602
		c0.977,0,1.708-0.075,2.193-0.224c0.485-0.149,0.867-0.419,1.145-0.809s0.417-0.898,0.417-1.525c0-0.908-0.255-1.579-0.765-2.013
		s-1.331-0.65-2.462-0.65H150.392z"/>
	<path d="M177.657,19.563v3.226h-0.379c-0.225-0.744-0.475-1.279-0.749-1.604s-0.65-0.584-1.128-0.778
		c-0.268-0.105-0.735-0.158-1.403-0.158h-1.065v9.193c0,0.609,0.041,0.99,0.122,1.143c0.081,0.152,0.239,0.286,0.475,0.4
		c0.235,0.114,0.557,0.171,0.965,0.171h0.475v0.325h-7.488v-0.325h0.475c0.415,0,0.749-0.062,1.002-0.185
		c0.183-0.082,0.327-0.223,0.433-0.422c0.077-0.141,0.116-0.51,0.116-1.107v-9.193h-1.033c-0.963,0-1.663,0.17-2.099,0.51
		c-0.612,0.475-0.999,1.151-1.16,2.03h-0.401v-3.226H177.657z"/>
	<path d="M190.356,28.088h-5.052l-0.601,1.16c-0.197,0.387-0.295,0.706-0.295,0.958c0,0.334,0.162,0.58,0.485,0.738
		c0.19,0.094,0.658,0.164,1.403,0.211v0.325h-4.756v-0.325c0.513-0.064,0.935-0.242,1.266-0.532c0.33-0.29,0.738-0.889,1.223-1.797
		l5.115-9.51h0.201l5.157,9.773c0.492,0.926,0.896,1.509,1.213,1.749c0.239,0.182,0.577,0.287,1.013,0.316v0.325h-6.919v-0.325
		h0.285c0.556,0,0.946-0.064,1.171-0.193c0.154-0.094,0.232-0.229,0.232-0.404c0-0.105-0.021-0.214-0.063-0.325
		c-0.014-0.053-0.12-0.272-0.316-0.659L190.356,28.088z M189.998,27.438l-2.13-4.104l-2.194,4.104H189.998z"/>
	<path d="M201.79,31.48v-0.325h0.475c0.415,0,0.733-0.054,0.955-0.163s0.385-0.256,0.49-0.444c0.063-0.123,0.095-0.492,0.095-1.107
		v-7.84c0-0.609-0.039-0.99-0.116-1.143s-0.234-0.286-0.469-0.4c-0.236-0.114-0.554-0.171-0.955-0.171h-0.475v-0.325h6.402
		c1.709,0,3.083,0.193,4.124,0.58c1.272,0.475,2.238,1.192,2.895,2.153s0.986,2.048,0.986,3.261c0,0.838-0.162,1.61-0.485,2.316
		s-0.742,1.289-1.255,1.749c-0.514,0.46-1.106,0.829-1.777,1.107s-1.492,0.494-2.462,0.646c-0.429,0.07-1.104,0.105-2.025,0.105
		H201.79z M207.242,20.239v9.299c0,0.492,0.028,0.794,0.084,0.905s0.151,0.196,0.285,0.255c0.19,0.088,0.464,0.132,0.823,0.132
		c1.174,0,2.071-0.334,2.689-1.002c0.844-0.902,1.266-2.303,1.266-4.201c0-1.529-0.288-2.751-0.865-3.665
		c-0.457-0.715-1.044-1.201-1.761-1.459C209.257,20.321,208.417,20.233,207.242,20.239z"/>
	<path d="M229.983,19.396c2.278-0.07,4.129,0.483,5.553,1.661s2.136,2.651,2.136,4.421c0,1.512-0.531,2.842-1.593,3.99
		c-1.406,1.523-3.393,2.285-5.959,2.285c-2.573,0-4.563-0.727-5.969-2.18c-1.111-1.148-1.667-2.511-1.667-4.087
		c0-1.77,0.723-3.245,2.167-4.425S227.874,19.325,229.983,19.396z M230.109,19.958c-1.308,0-2.303,0.557-2.985,1.67
		c-0.556,0.914-0.833,2.227-0.833,3.938c0,2.033,0.429,3.536,1.287,4.509c0.598,0.68,1.434,1.02,2.51,1.02
		c0.724,0,1.329-0.146,1.814-0.439c0.619-0.375,1.1-0.974,1.445-1.797c0.344-0.823,0.517-1.897,0.517-3.221
		c0-1.576-0.176-2.755-0.527-3.538s-0.8-1.334-1.345-1.657S230.819,19.958,230.109,19.958z"/>
	<path d="M248.715,26.049v3.34c0,0.645,0.047,1.05,0.143,1.217c0.094,0.167,0.262,0.3,0.5,0.4c0.239,0.1,0.687,0.149,1.34,0.149
		v0.325h-7.319v-0.325c0.661,0,1.109-0.051,1.345-0.154c0.235-0.103,0.401-0.236,0.496-0.4s0.143-0.568,0.143-1.213v-7.734
		c0-0.645-0.048-1.05-0.143-1.217s-0.262-0.3-0.501-0.4c-0.239-0.1-0.686-0.149-1.339-0.149v-0.325h6.645
		c1.729,0,2.995,0.1,3.797,0.299s1.455,0.567,1.962,1.103c0.506,0.536,0.759,1.165,0.759,1.885c0,0.879-0.379,1.605-1.139,2.18
		c-0.485,0.363-1.164,0.636-2.035,0.817l3.438,4.034c0.45,0.521,0.771,0.847,0.96,0.976c0.288,0.182,0.622,0.281,1.002,0.299v0.325
		h-4.503l-4.609-5.432H248.715z M248.715,20.204v5.221h0.602c0.977,0,1.708-0.075,2.193-0.224s0.866-0.419,1.144-0.809
		c0.278-0.39,0.417-0.898,0.417-1.525c0-0.908-0.255-1.579-0.765-2.013s-1.331-0.65-2.462-0.65H248.715z"/>
	<path d="M272.099,28.088h-5.053l-0.601,1.16c-0.197,0.387-0.296,0.706-0.296,0.958c0,0.334,0.162,0.58,0.485,0.738
		c0.19,0.094,0.657,0.164,1.403,0.211v0.325h-4.757v-0.325c0.513-0.064,0.935-0.242,1.266-0.532c0.33-0.29,0.738-0.889,1.224-1.797
		l5.115-9.51h0.2l5.157,9.773c0.492,0.926,0.896,1.509,1.213,1.749c0.239,0.182,0.576,0.287,1.013,0.316v0.325h-6.919v-0.325h0.285
		c0.555,0,0.945-0.064,1.17-0.193c0.155-0.094,0.232-0.229,0.232-0.404c0-0.105-0.021-0.214-0.063-0.325
		c-0.014-0.053-0.119-0.272-0.316-0.659L272.099,28.088z M271.739,27.438l-2.13-4.104l-2.194,4.104H271.739z"/>
	<path d="M302.212,31.48v-0.325h0.475c0.414,0,0.732-0.054,0.954-0.163s0.385-0.256,0.49-0.444c0.063-0.123,0.095-0.492,0.095-1.107
		v-7.84c0-0.609-0.038-0.99-0.115-1.143c-0.078-0.152-0.234-0.286-0.47-0.4s-0.554-0.171-0.954-0.171h-0.475v-0.325h6.401
		c1.709,0,3.083,0.193,4.124,0.58c1.272,0.475,2.237,1.192,2.896,2.153c0.657,0.961,0.985,2.048,0.985,3.261
		c0,0.838-0.161,1.61-0.484,2.316c-0.324,0.706-0.742,1.289-1.256,1.749c-0.513,0.46-1.105,0.829-1.776,1.107
		c-0.672,0.278-1.493,0.494-2.463,0.646c-0.429,0.07-1.104,0.105-2.025,0.105H302.212z M307.664,20.239v9.299
		c0,0.492,0.028,0.794,0.085,0.905c0.056,0.111,0.15,0.196,0.284,0.255c0.19,0.088,0.464,0.132,0.823,0.132
		c1.174,0,2.07-0.334,2.689-1.002c0.844-0.902,1.266-2.303,1.266-4.201c0-1.529-0.289-2.751-0.865-3.665
		c-0.457-0.715-1.044-1.201-1.762-1.459C309.679,20.321,308.839,20.233,307.664,20.239z"/>
	<path d="M327.946,20.248V25.1h0.285c0.907,0,1.564-0.237,1.973-0.712c0.407-0.475,0.668-1.175,0.78-2.101h0.4v6.24h-0.4
		c-0.085-0.68-0.263-1.236-0.533-1.67s-0.585-0.725-0.943-0.875s-0.879-0.224-1.562-0.224v3.357c0,0.656,0.033,1.058,0.101,1.204
		c0.066,0.146,0.191,0.267,0.374,0.36c0.184,0.094,0.479,0.141,0.887,0.141h0.854c1.336,0,2.406-0.258,3.212-0.773
		c0.805-0.516,1.383-1.301,1.735-2.355h0.39l-0.644,3.788h-12.36v-0.325h0.475c0.415,0,0.749-0.062,1.002-0.185
		c0.183-0.082,0.323-0.223,0.422-0.422c0.077-0.141,0.116-0.51,0.116-1.107v-7.84c0-0.539-0.018-0.87-0.053-0.993
		c-0.07-0.205-0.201-0.363-0.391-0.475c-0.268-0.164-0.633-0.246-1.097-0.246h-0.475v-0.325h11.971v3.524h-0.401
		c-0.204-0.861-0.49-1.479-0.859-1.854s-0.891-0.65-1.566-0.826c-0.394-0.105-1.132-0.158-2.215-0.158H327.946z"/>
	<path d="M366.709,26.084v3.305c0,0.645,0.048,1.05,0.143,1.217s0.264,0.3,0.507,0.4c0.242,0.1,0.687,0.149,1.334,0.149v0.325
		h-7.267v-0.325c0.66,0,1.108-0.051,1.345-0.154c0.235-0.103,0.4-0.236,0.495-0.4s0.143-0.568,0.143-1.213v-7.734
		c0-0.645-0.048-1.05-0.143-1.217s-0.262-0.3-0.501-0.4s-0.686-0.149-1.339-0.149v-0.325h6.232c2.054,0,3.526,0.305,4.42,0.914
		c0.893,0.609,1.339,1.371,1.339,2.285c0,0.773-0.288,1.436-0.864,1.986c-0.577,0.551-1.371,0.926-2.384,1.125
		C369.486,26.014,368.334,26.084,366.709,26.084z M366.709,20.248v5.15c0.232,0.012,0.408,0.018,0.527,0.018
		c0.858,0,1.52-0.212,1.983-0.637s0.696-1.083,0.696-1.973c0-0.885-0.232-1.532-0.696-1.942s-1.157-0.615-2.078-0.615H366.709z"/>
	<path d="M384.491,20.248V25.1h0.285c0.907,0,1.564-0.237,1.973-0.712c0.407-0.475,0.668-1.175,0.78-2.101h0.4v6.24h-0.4
		c-0.085-0.68-0.263-1.236-0.533-1.67s-0.585-0.725-0.943-0.875s-0.879-0.224-1.562-0.224v3.357c0,0.656,0.033,1.058,0.101,1.204
		c0.066,0.146,0.191,0.267,0.374,0.36c0.184,0.094,0.479,0.141,0.887,0.141h0.854c1.336,0,2.406-0.258,3.212-0.773
		c0.805-0.516,1.383-1.301,1.735-2.355h0.39l-0.644,3.788h-12.36v-0.325h0.475c0.415,0,0.749-0.062,1.002-0.185
		c0.183-0.082,0.323-0.223,0.422-0.422c0.077-0.141,0.116-0.51,0.116-1.107v-7.84c0-0.539-0.018-0.87-0.053-0.993
		c-0.07-0.205-0.201-0.363-0.391-0.475c-0.268-0.164-0.633-0.246-1.097-0.246h-0.475v-0.325h11.971v3.524h-0.401
		c-0.204-0.861-0.49-1.479-0.859-1.854s-0.891-0.65-1.566-0.826c-0.394-0.105-1.132-0.158-2.215-0.158H384.491z"/>
	<path d="M403.287,26.049v3.34c0,0.645,0.048,1.05,0.143,1.217s0.262,0.3,0.501,0.4s0.686,0.149,1.34,0.149v0.325h-7.32v-0.325
		c0.661,0,1.109-0.051,1.345-0.154c0.236-0.103,0.401-0.236,0.496-0.4s0.143-0.568,0.143-1.213v-7.734
		c0-0.645-0.048-1.05-0.143-1.217s-0.262-0.3-0.501-0.4s-0.686-0.149-1.34-0.149v-0.325h6.645c1.73,0,2.996,0.1,3.797,0.299
		c0.802,0.199,1.456,0.567,1.962,1.103c0.507,0.536,0.76,1.165,0.76,1.885c0,0.879-0.38,1.605-1.14,2.18
		c-0.484,0.363-1.163,0.636-2.035,0.817l3.438,4.034c0.449,0.521,0.77,0.847,0.96,0.976c0.288,0.182,0.622,0.281,1.002,0.299v0.325
		h-4.504l-4.609-5.432H403.287z M403.287,20.204v5.221h0.602c0.977,0,1.708-0.075,2.193-0.224s0.866-0.419,1.145-0.809
		c0.277-0.39,0.417-0.898,0.417-1.525c0-0.908-0.255-1.579-0.765-2.013c-0.511-0.434-1.331-0.65-2.463-0.65H403.287z"/>
	<path d="M423.063,19.563l7.056,7.392V21.83c0-0.715-0.123-1.198-0.369-1.45c-0.337-0.34-0.903-0.504-1.698-0.492v-0.325h4.726
		v0.325c-0.605,0.064-1.011,0.148-1.219,0.25c-0.207,0.103-0.369,0.27-0.484,0.501c-0.116,0.231-0.175,0.628-0.175,1.191v9.923
		h-0.358l-9.671-9.923v7.576c0,0.686,0.188,1.148,0.563,1.389s0.808,0.36,1.292,0.36h0.338v0.325h-5.073v-0.325
		c0.787-0.006,1.336-0.141,1.646-0.404s0.464-0.712,0.464-1.345v-8.411l-0.306-0.316c-0.303-0.316-0.569-0.524-0.802-0.624
		c-0.231-0.1-0.565-0.155-1.002-0.167v-0.325H423.063z"/>
	<path d="M446.162,19.396c2.278-0.07,4.129,0.483,5.553,1.661s2.136,2.651,2.136,4.421c0,1.512-0.531,2.842-1.593,3.99
		c-1.406,1.523-3.393,2.285-5.959,2.285c-2.573,0-4.563-0.727-5.97-2.18c-1.11-1.148-1.666-2.511-1.666-4.087
		c0-1.77,0.723-3.245,2.167-4.425C442.275,19.88,444.053,19.325,446.162,19.396z M446.288,19.958c-1.308,0-2.303,0.557-2.984,1.67
		c-0.556,0.914-0.833,2.227-0.833,3.938c0,2.033,0.429,3.536,1.286,4.509c0.598,0.68,1.435,1.02,2.511,1.02
		c0.724,0,1.329-0.146,1.813-0.439c0.619-0.375,1.101-0.974,1.445-1.797s0.517-1.897,0.517-3.221c0-1.576-0.176-2.755-0.527-3.538
		s-0.8-1.334-1.345-1.657S446.999,19.958,446.288,19.958z"/>
	<path d="M469.303,19.29l0.115,3.973h-0.432c-0.204-0.996-0.705-1.797-1.503-2.404c-0.799-0.606-1.661-0.91-2.59-0.91
		c-0.717,0-1.285,0.16-1.703,0.479s-0.628,0.687-0.628,1.103c0,0.264,0.074,0.498,0.222,0.703c0.204,0.275,0.531,0.548,0.981,0.817
		c0.33,0.193,1.093,0.536,2.288,1.028c1.674,0.686,2.802,1.333,3.386,1.942c0.576,0.609,0.865,1.307,0.865,2.092
		c0,0.996-0.466,1.853-1.397,2.571c-0.933,0.718-2.115,1.077-3.55,1.077c-0.449,0-0.875-0.038-1.275-0.114
		c-0.401-0.076-0.904-0.22-1.509-0.431c-0.337-0.117-0.615-0.176-0.833-0.176c-0.183,0-0.376,0.059-0.58,0.176
		s-0.369,0.296-0.496,0.536h-0.39v-4.5h0.39c0.31,1.266,0.905,2.231,1.788,2.896c0.882,0.665,1.833,0.998,2.853,0.998
		c0.788,0,1.415-0.179,1.883-0.536s0.701-0.773,0.701-1.248c0-0.281-0.089-0.554-0.269-0.817s-0.452-0.514-0.817-0.751
		s-1.013-0.546-1.94-0.927c-1.301-0.533-2.236-0.987-2.806-1.362s-1.007-0.794-1.313-1.257c-0.306-0.463-0.458-0.973-0.458-1.529
		c0-0.949,0.418-1.758,1.255-2.426s1.892-1.002,3.164-1.002c0.464,0,0.914,0.047,1.35,0.141c0.331,0.07,0.733,0.201,1.208,0.391
		s0.807,0.286,0.996,0.286c0.184,0,0.327-0.047,0.433-0.141s0.204-0.319,0.296-0.677H469.303z"/>
</g>
</svg>
